# xmcd
#
# Track frame offsets:
#	150
#	86962
#	148172
#	170982
#	203945
#	234652
#	257320
#
# Disc length: 4168 seconds
#
# Revision: 14
# Processed by: cddbd v1.5.2PL0 Copyright (c) Steve Scherf et al.
# Submitted via: Jack! The Knife 17 Overdose
#
DISCID=67104607
DTITLE=Diamanda Galas - The Divine Punishment and Saint Of The Pit
DYEAR=1986
DGENRE=Psychadelic
TTITLE0=Deliver Me From Mine Enemies
TTITLE1=Free Among The Dead
TTITLE2=La Trezième Revient
TTITLE3=Exeloume
TTITLE4=Heauton Timoroumenos
TTITLE5=Artémis (1854)
TTITLE6=Cris D'Aveugle
EXTD=Dave Hunt, Gareth Jones and Diamanda Galas
EXTT0=
EXTT1=
EXTT2=
EXTT3=
EXTT4=
EXTT5=
EXTT6=
PLAYORDER=
